/* XPM */
static char *gwc[]={
"32 32 56 1",
". c None",
"0 c #777035",
"1 c #ffffff",
"# c #ffffff",
"f c #777733",
"g c #888833",
"z c #998811",
"h c #a68d29",
"U c #b3962f",
"V c #b69b35",
"M c #b79f38",
"u c #b89931",
"p c #b89d36",
"F c #b8a039",
"y c #b99a32",
"A c #b9a039",
"v c #b9a13a",
"E c #ba9b32",
"L c #ba9c32",
"i c #baa23a",
"b c #bb9c33",
"e c #bb9d33",
"o c #bc9d34",
"x c #bc9e34",
"C c #bc9e35",
"I c #bd9f35",
"T c #bda035",
"t c #c4aa3d",
"W c #c6aa40",
"J c #c6aa41",
"D c #c6ab41",
"Z c #c6ac3e",
"a c #c6ad40",
"q c #c7ab42",
"n c #c7af41",
"d c #c8ac43",
"c c #c9ad43",
"S c #c9b243",
"N c #cbb449",
"s c #cfba48",
"X c #d0b84a",
"Y c #d0bb49",
"m c #d4c24f",
"r c #d5c24f",
"K c #d5c350",
"R c #d6c451",
"O c #dbc858",
"j c #ddca59",
"l c #e0d15b",
"B c #e0d25b",
"H c #e1d25c",
"Q c #e1d35c",
"G c #eadb66",
"w c #ebdb66",
"k c #ebdc66",
"P c #efe26a",
"...............................#",
"................................",
"................................",
"................................",
"................................",
"................................",
"................................",
".................ab...c.........",
"..................b...d.........",
"..................e.............",
"..fgfh.hi.jk...lmno..pq..rstu...",
".....h..v..w...l..x...q..r..y...",
"..fgzh..A..w...B..C...D..r..E...",
"..f..h..F..G...H..I...J..K..L...",
"..fgzhh.MNOGP..QRSTU.VWX.KYZb...",
"................................",
"................................",
"............0...................",
"................................",
"................................",
"................................",
"................................",
"................................",
"................................",
"................................",
"................................",
"................................",
"................................",
"................................",
"................................",
"................................",
"...............................1"};
